<svg xmlns="http://www.w3.org/2000/svg" viewBox="0 0 100 100" preserveAspectRatio="xMidYMid" width="100%" height="100%" style="shape-rendering: auto; display: block; background: rgba(255, 255, 255, 0);" xmlns:xlink="http://www.w3.org/1999/xlink"><g><g transform="rotate(0 50 50)">
  <rect fill="#8c00f9" height="9" width="10" ry="4.5" rx="5" y="26.5" x="45">
    <animate repeatCount="indefinite" begin="-0.45605306799336653s" dur="0.49751243781094534s" keyTimes="0;1" values="1;0" attributeName="opacity"></animate>
  </rect>
</g><g transform="rotate(30 50 50)">
  <rect fill="#8c00f9" height="9" width="10" ry="4.5" rx="5" y="26.5" x="45">
    <animate repeatCount="indefinite" begin="-0.4145936981757878s" dur="0.49751243781094534s" keyTimes="0;1" values="1;0" attributeName="opacity"></animate>
  </rect>
</g><g transform="rotate(60 50 50)">
  <rect fill="#8c00f9" height="9" width="10" ry="4.5" rx="5" y="26.5" x="45">
    <animate repeatCount="indefinite" begin="-0.373134328358209s" dur="0.49751243781094534s" keyTimes="0;1" values="1;0" attributeName="opacity"></animate>
  </rect>
</g><g transform="rotate(90 50 50)">
  <rect fill="#8c00f9" height="9" width="10" ry="4.5" rx="5" y="26.5" x="45">
    <animate repeatCount="indefinite" begin="-0.3316749585406302s" dur="0.49751243781094534s" keyTimes="0;1" values="1;0" attributeName="opacity"></animate>
  </rect>
</g><g transform="rotate(120 50 50)">
  <rect fill="#8c00f9" height="9" width="10" ry="4.5" rx="5" y="26.5" x="45">
    <animate repeatCount="indefinite" begin="-0.2902155887230514s" dur="0.49751243781094534s" keyTimes="0;1" values="1;0" attributeName="opacity"></animate>
  </rect>
</g><g transform="rotate(150 50 50)">
  <rect fill="#8c00f9" height="9" width="10" ry="4.5" rx="5" y="26.5" x="45">
    <animate repeatCount="indefinite" begin="-0.24875621890547267s" dur="0.49751243781094534s" keyTimes="0;1" values="1;0" attributeName="opacity"></animate>
  </rect>
</g><g transform="rotate(180 50 50)">
  <rect fill="#8c00f9" height="9" width="10" ry="4.5" rx="5" y="26.5" x="45">
    <animate repeatCount="indefinite" begin="-0.2072968490878939s" dur="0.49751243781094534s" keyTimes="0;1" values="1;0" attributeName="opacity"></animate>
  </rect>
</g><g transform="rotate(210 50 50)">
  <rect fill="#8c00f9" height="9" width="10" ry="4.5" rx="5" y="26.5" x="45">
    <animate repeatCount="indefinite" begin="-0.1658374792703151s" dur="0.49751243781094534s" keyTimes="0;1" values="1;0" attributeName="opacity"></animate>
  </rect>
</g><g transform="rotate(240 50 50)">
  <rect fill="#8c00f9" height="9" width="10" ry="4.5" rx="5" y="26.5" x="45">
    <animate repeatCount="indefinite" begin="-0.12437810945273634s" dur="0.49751243781094534s" keyTimes="0;1" values="1;0" attributeName="opacity"></animate>
  </rect>
</g><g transform="rotate(270 50 50)">
  <rect fill="#8c00f9" height="9" width="10" ry="4.5" rx="5" y="26.5" x="45">
    <animate repeatCount="indefinite" begin="-0.08291873963515756s" dur="0.49751243781094534s" keyTimes="0;1" values="1;0" attributeName="opacity"></animate>
  </rect>
</g><g transform="rotate(300 50 50)">
  <rect fill="#8c00f9" height="9" width="10" ry="4.5" rx="5" y="26.5" x="45">
    <animate repeatCount="indefinite" begin="-0.04145936981757878s" dur="0.49751243781094534s" keyTimes="0;1" values="1;0" attributeName="opacity"></animate>
  </rect>
</g><g transform="rotate(330 50 50)">
  <rect fill="#8c00f9" height="9" width="10" ry="4.5" rx="5" y="26.5" x="45">
    <animate repeatCount="indefinite" begin="0s" dur="0.49751243781094534s" keyTimes="0;1" values="1;0" attributeName="opacity"></animate>
  </rect>
</g><g></g></g><!-- [ldio] generated by https://loading.io --></svg>